<?xml version="1.0" encoding="utf-8"?>
<!-- Generator: Adobe Illustrator 16.0.0, SVG Export Plug-In . SVG Version: 6.00 Build 0)  -->
<!DOCTYPE svg PUBLIC "-//W3C//DTD SVG 1.1//EN" "http://www.w3.org/Graphics/SVG/1.1/DTD/svg11.dtd">
<svg version="1.1" id="Layer_1" xmlns="http://www.w3.org/2000/svg" xmlns:xlink="http://www.w3.org/1999/xlink" x="0px" y="0px"
	 width="166.945px" height="55px" viewBox="0 0 166.945 55" enable-background="new 0 0 166.945 55" xml:space="preserve">
<g id="Grupo_5" transform="translate(-266.324 -246.698)">
	<g id="Grupo_1" transform="translate(266.324 246.698)">
		<path id="Trazado_1" fill="#754125" d="M48.515,0.002c0.977,0.673,2.056,1.166,3.083,1.75c1.485,0.843,2.984,1.663,4.486,2.477
			c0.24,0.13,0.259,0.228,0.125,0.458c-1.996,3.427-3.985,6.857-5.967,10.291c-0.097,0.162-0.229,0.299-0.388,0.4
			c-2.094,1.439-4.192,2.873-6.274,4.33c-0.317,0.222-0.414,0.129-0.583-0.153c-1.096-1.908-2.438-3.663-3.993-5.22
			c-0.497-0.481-1.046-0.905-1.637-1.265c1.018-0.717,2.011-1.418,3.006-2.117c0.884-0.621,1.767-1.244,2.66-1.854
			c0.189-0.139,0.344-0.318,0.453-0.526c1.64-2.825,3.279-5.651,4.917-8.479c0.01-0.028,0.016-0.058,0.017-0.087L48.515,0.002z"/>
		<path id="Trazado_2" fill="#754125" d="M0,8.305C1.8,7.442,3.598,6.58,5.394,5.716C6.183,5.337,6.976,4.964,7.753,4.56
			c0.249-0.129,0.336-0.069,0.445,0.155c1.33,2.733,2.665,5.462,4.007,8.187c0.131,0.263,0.062,0.37-0.141,0.533
			c-2.441,1.92-4.401,4.383-5.725,7.192c-0.05,0.109-0.055,0.29-0.183,0.3c-0.173,0.013-0.177-0.188-0.234-0.306
			c-1.907-3.898-3.811-7.798-5.713-11.7C0.15,8.801,0.128,8.66,0,8.584V8.305z"/>
		<path id="Trazado_3" fill="#754125" d="M27.266,40.449c0,0.724-0.031,1.447,0.011,2.168c0.026,0.445-0.174,0.554-0.551,0.6
			c-2.142,0.284-4.321,0.051-6.354-0.682c-0.633-0.232-1.253-0.5-1.857-0.801c-0.21-0.071-0.334-0.289-0.289-0.506
			c0.049-0.58,0.038-1.166,0.108-1.74c0.034-0.91-0.042-1.82-0.227-2.711c-0.145-1.246-0.364-2.483-0.511-3.729
			c-0.033-0.294-0.196-0.557-0.444-0.716c-1.848-1.409-3.687-2.83-5.539-4.235c-0.22-0.124-0.333-0.377-0.28-0.625
			c0.424-2.776,1.691-5.354,3.63-7.386c0.345-0.356,0.564-0.4,0.986-0.074c3.261,2.533,6.536,5.049,9.825,7.547
			c0.191,0.133,0.314,0.343,0.337,0.575c0.323,2.57,0.634,5.143,0.977,7.711C27.357,37.365,27.417,38.914,27.266,40.449z"/>
		<path id="Trazado_4" fill="#754125" d="M45.477,33.17c0,1.119-0.009,2.238,0,3.355c0.054,5.973,0.113,11.946,0.176,17.92
			c0,0.341-0.067,0.455-0.434,0.457c-2.735,0.017-5.47,0.057-8.2,0.1c-0.283,0-0.408-0.038-0.41-0.375
			c-0.016-2.483-0.047-4.967-0.094-7.449c-0.026-0.293,0.114-0.578,0.364-0.734c3.888-2.773,6.711-6.793,8-11.393
			c0.178-0.619,0.3-1.257,0.45-1.886L45.477,33.17z"/>
		<path id="Trazado_5" fill="#754125" d="M31.763,17.649c4.09,2.522,6.509,5.95,6.916,10.679c0.321,3.725-1.048,7.425-2.245,8.607
			c0-0.58-0.034-1.107,0.006-1.631c0.126-2.303-0.243-4.605-1.083-6.754c-1.247-3.487-2.333-7.03-3.486-10.55
			C31.847,17.931,31.827,17.859,31.763,17.649z"/>
		<path id="Trazado_6" fill="#754125" d="M26.063,53.102c-2.635-0.121-5.27-0.248-7.906-0.359c-0.343-0.016-0.486-0.074-0.449-0.482
			c0.086-0.953,0.112-1.912,0.134-2.869c0.007-0.324,0.081-0.4,0.4-0.287c2.331,0.795,4.784,1.17,7.245,1.108
			c0.33-0.004,0.658-0.03,0.984-0.079c0.326-0.053,0.448,0.023,0.416,0.381c-0.057,0.639-0.068,1.285-0.1,1.928
			C26.754,53.148,26.754,53.148,26.063,53.102z"/>
	</g>
	<g id="Grupo_4" transform="translate(333.59 258.133)">
		<g id="Grupo_2">
			<path id="Trazado_7" fill="#754125" d="M8.332,16.805C3.286,16.805,0,13.989,0,8.38c-0.108-4.519,3.467-8.271,7.986-8.379
				C8.102-0.002,8.217-0.002,8.332,0c5.258,0,8.285,3.309,8.285,8.38c0.085,4.567-3.548,8.339-8.116,8.423
				C8.445,16.805,8.389,16.805,8.332,16.805z M8.332,2.418c-2.769,0-4.835,2.23-4.835,5.962c0,3.755,1.455,6.009,4.835,6.009
				c3.216,0,4.765-2.957,4.765-6.009c0-3.568-1.549-5.96-4.765-5.96V2.418z"/>
			<path id="Trazado_8" fill="#754125" d="M20.229,16.548l0.119-16.289h3.238l-0.093,13.73h5.75v2.559H20.229z"/>
			<path id="Trazado_9" fill="#754125" d="M42.393,16.829l-1.601-4.646h-5.866l-1.736,4.623l-2.863-0.657l6.266-15.889h3.17
				l5.82,15.843L42.393,16.829z M38.919,6.76c-0.438-1.268-0.761-2.573-0.963-3.9c-0.255,1.322-0.6,2.625-1.033,3.9l-1.032,2.933
				h4.061L38.919,6.76z"/>
			<path id="Trazado_10" fill="#754125" d="M53.097,16.688c-1.127,0-3.45-0.07-4.765-0.14l0.117-16.289
				c1.201-0.047,4.037-0.235,5.211-0.235c2.137,0,6.22-0.047,6.22,4.271c0.071,1.905-1.287,3.566-3.169,3.873
				c1.951,0.187,3.398,1.894,3.263,3.849C59.974,14.74,58.072,16.665,53.097,16.688z M53.331,9.483h-1.714l-0.023,4.671
				c0,0,1.314,0.047,1.689,0.047c1.996,0,3.332-0.7,3.332-2.394C56.617,9.765,55.232,9.483,53.331,9.483L53.331,9.483z
				 M53.707,2.465c-0.471,0-1.5,0.047-2.064,0.071l-0.024,4.483h1.924c1.899,0,3.028-0.634,3.028-2.277
				C56.57,3,55.445,2.465,53.707,2.465z"/>
			<path id="Trazado_11" fill="#754125" d="M67.251,16.548h-3.237l0.119-16.289h3.237L67.251,16.548z"/>
			<path id="Trazado_12" fill="#754125" d="M77.462,16.688c-2.911,0-5.444-0.14-5.444-0.14l0.117-16.289
				c0.727-0.047,3.801-0.235,5.516-0.235c4.437,0,8.613,1.807,8.613,8.051c0.012,4.746-3.826,8.603-8.572,8.615
				C77.615,16.69,77.539,16.69,77.462,16.688z M77.743,2.441c-0.985,0-1.9,0.046-2.417,0.07L75.279,14.2
				c0,0,1.267,0.047,2.205,0.047c2.981,0,5.258-2.7,5.258-6.1C82.743,4.788,81.006,2.441,77.743,2.441L77.743,2.441z"/>
			<path id="Trazado_13" fill="#754125" d="M89.88,16.548l0.118-16.289h9.367V2.77h-6.148l-0.023,4.2h6.072v2.512h-6.1l-0.023,4.554
				h6.221v2.511L89.88,16.548z"/>
		</g>
		<g id="Grupo_3" transform="translate(1.338 22.335)">
			<path id="Trazado_14" fill="#A9A6A6" d="M1.886,15.147h-1.888L0.126,0.322h1.886L1.886,15.147z"/>
			<path id="Trazado_15" fill="#A9A6A6" d="M8.698,15.147H6.813L6.942,0.322h1.885L8.698,15.147z M16.26,15.511L9.019,7.605
				L16.367,0l1.371,1.072l-6.3,6.405l6.384,6.92L16.26,15.511z"/>
			<path id="Trazado_16" fill="#A9A6A6" d="M31.237,15.447l-2.015-5.227h-6.105l-2.077,5.227l-1.757-0.535l6.213-14.59h1.757
				l5.81,14.551L31.237,15.447z M26.932,4.393c-0.258-0.664-0.729-2.271-0.729-2.271s-0.364,1.35-0.729,2.25l-1.735,4.305h4.862
				L26.932,4.393z"/>
			<path id="Trazado_17" fill="#A9A6A6" d="M42.206,2.357c-0.86-0.59-1.894-0.876-2.935-0.814c-1.5,0-2.785,0.75-2.785,2.271
				c0,3.428,6.533,2.421,6.533,7.348c0,2.635-2.057,4.221-4.713,4.221c-1.482,0.087-2.951-0.32-4.178-1.157l0.964-1.308
				c0.88,0.664,1.962,1.005,3.063,0.965c1.307,0,2.936-0.686,2.936-2.465c0-3.642-6.514-2.506-6.514-7.539
				c0-2.508,2.229-3.793,4.543-3.793c1.412-0.107,2.82,0.254,4.006,1.029L42.206,2.357z"/>
			<path id="Trazado_18" fill="#A9A6A6" d="M50.864,1.886l-0.108,13.261h-1.885l0.107-13.261h-4.691V0.322h11.225v1.564H50.864z"/>
			<path id="Trazado_19" fill="#A9A6A6" d="M63.783,15.382c-4.113,0-7.07-3.043-7.07-7.627c-0.139-4.096,3.07-7.528,7.166-7.666
				c0.032-0.002,0.064-0.002,0.097-0.004c4.113,0,6.984,3.064,6.984,7.67c0.194,4.014-2.901,7.424-6.915,7.619
				C63.957,15.378,63.87,15.38,63.783,15.382z M63.912,1.582c-2.893,0-5.228,2.422-5.228,6.127c0,3.514,1.95,6.17,5.101,6.17
				c3.106,0,5.205-2.721,5.205-6.084c-0.002-3.422-1.844-6.209-5.078-6.209V1.582z"/>
			<path id="Trazado_20" fill="#A9A6A6" d="M74.861,15.147l0.128-14.825h1.886l-0.107,13.262h6.127v1.563H74.861z"/>
			<path id="Trazado_21" fill="#A9A6A6" d="M96.516,15.447l-2.013-5.227h-6.106l-2.077,5.227l-1.757-0.535l6.213-14.59h1.757
				l5.8,14.547L96.516,15.447z M92.217,4.392c-0.258-0.664-0.729-2.271-0.729-2.271s-0.364,1.351-0.728,2.25l-1.736,4.307h4.863
				L92.217,4.392z"/>
		</g>
	</g>
</g>
</svg>
